<?xml version="1.0" encoding="utf-8"?>
<!-- Generator: Adobe Illustrator 26.0.2, SVG Export Plug-In . SVG Version: 6.00 Build 0)  -->
<svg version="1.1" id="Calque_1" xmlns="http://www.w3.org/2000/svg" xmlns:xlink="http://www.w3.org/1999/xlink" x="0px" y="0px"
	 viewBox="0 0 719 768" style="enable-background:new 0 0 719 768;" xml:space="preserve">
<style type="text/css">
	.st0{fill:#7AC943;}
	.st1{fill:#FCFCFC;}
	.st2{fill:#63C965;}
</style>
<g>
	<g>
		<path class="st0" d="M224.31,554.16h263.94c0.67-8.28,1.03-16.69,1.03-25.2c0-54.26-14.05-104.3-37.71-144.42l118.47,17.58
			l-121.61-99.35l145.65-65.51l-157.2-16.5l88.83-133.41l-142.88,71.59L386.64,0l-83.19,136.94L221.02,2.93l2.9,158.82L81.44,95.21
			l88.08,130.28L12.21,247.55l145.29,60.37L35.31,411.58l117.26-21.53c-21.75,39.15-34.55,87.1-34.55,138.91
			c0,132.02,83.11,239.04,185.64,239.04c92.68,0,169.49-87.47,183.38-201.79H224.31V554.16z"/>
		<path class="st0" d="M488.26,554.16c-0.33,4.05-0.74,8.06-1.22,12.05h210.13v-12.05H488.26z"/>
	</g>
	<path class="st1" d="M213.17,487.88c-3.63-4.33-8.76-6.5-15.38-6.5c-3.69,0-7.05,1-10.09,3c-2.42,1.59-4.46,3.75-6.15,6.41v-8.53
		h-12v61.06h12v-38.65c0-3.76,1.07-6.69,3.21-8.76c2.14-2.08,5.17-3.12,9.09-3.12c4.04,0,7.18,1.18,9.41,3.53
		c2.24,2.35,3.35,5.69,3.35,10v37h12v-37.06C218.62,498.34,216.8,492.21,213.17,487.88z"/>
	<path class="st1" d="M279.91,491.82c-1.88-3.39-4.63-5.98-8.24-7.76c-3.61-1.78-7.94-2.68-13-2.68c-4.63,0-8.83,0.77-12.62,2.32
		c-3.79,1.55-6.83,3.72-9.15,6.5l8.76,6c1.8-1.33,3.87-2.37,6.21-3.12c2.33-0.74,4.71-1.12,7.15-1.12c3.92,0,6.95,1.11,9.09,3.32
		c2.14,2.22,3.21,5.32,3.21,9.32v2.59H254.5c-6.9,0-12.06,1.51-15.47,4.53c-3.41,3.02-5.12,7.55-5.12,13.59
		c0,6.35,1.86,11.09,5.59,14.21c3.73,3.12,9.35,4.68,16.88,4.68c2.55,0,4.84-0.26,6.88-0.79c2.04-0.53,3.83-1.32,5.38-2.38
		c1.01-0.69,1.88-1.55,2.68-2.49v4.78h11.41v-39.24C282.73,499.3,281.79,495.21,279.91,491.82z M271.32,528.38
		c0,2.08-1.13,3.61-3.38,4.59c-2.26,0.98-5.68,1.47-10.26,1.47c-4.2,0-7.32-0.74-9.38-2.24c-2.06-1.49-3.09-3.78-3.09-6.88
		c0-2.86,0.77-4.99,2.32-6.38c1.55-1.39,3.89-2.09,7.03-2.09h16.76V528.38z"/>
	<path class="st1" d="M344.59,487.88c-3.63-4.33-8.76-6.5-15.38-6.5c-3.69,0-7.05,1-10.09,3c-2.42,1.59-4.46,3.75-6.15,6.41v-8.53
		h-12v61.06h12v-38.65c0-3.76,1.07-6.69,3.21-8.76c2.14-2.08,5.17-3.12,9.09-3.12c4.04,0,7.18,1.18,9.41,3.53
		c2.24,2.35,3.35,5.69,3.35,10v37h12v-37.06C350.03,498.34,348.21,492.21,344.59,487.88z"/>
	<path class="st1" d="M411.32,491.82c-1.88-3.39-4.63-5.98-8.24-7.76c-3.61-1.78-7.94-2.68-13-2.68c-4.63,0-8.83,0.77-12.62,2.32
		c-3.79,1.55-6.83,3.72-9.15,6.5l8.76,6c1.8-1.33,3.87-2.37,6.21-3.12c2.33-0.74,4.71-1.12,7.15-1.12c3.92,0,6.95,1.11,9.09,3.32
		c2.14,2.22,3.21,5.32,3.21,9.32v2.59h-16.82c-6.9,0-12.06,1.51-15.47,4.53c-3.41,3.02-5.12,7.55-5.12,13.59
		c0,6.35,1.86,11.09,5.59,14.21c3.73,3.12,9.35,4.68,16.88,4.68c2.55,0,4.84-0.26,6.88-0.79c2.04-0.53,3.83-1.32,5.38-2.38
		c1.01-0.69,1.88-1.55,2.68-2.49v4.78h11.41v-39.24C414.14,499.3,413.2,495.21,411.32,491.82z M402.73,528.38
		c0,2.08-1.13,3.61-3.38,4.59c-2.26,0.98-5.68,1.47-10.26,1.47c-4.2,0-7.32-0.74-9.38-2.24c-2.06-1.49-3.09-3.78-3.09-6.88
		c0-2.86,0.77-4.99,2.32-6.38c1.55-1.39,3.89-2.09,7.03-2.09h16.76V528.38z"/>
	<path class="st1" d="M476.5,513.55c-2.04-2.55-4.56-4.25-7.56-5.12c-3-0.86-6.64-1.43-10.91-1.71c-0.12-0.04-0.24-0.06-0.35-0.06
		s-0.24,0-0.35,0c-0.27-0.04-0.54-0.06-0.79-0.06c-0.26,0-0.5-0.02-0.74-0.06c-3.26-0.2-5.76-0.43-7.53-0.71
		c-1.76-0.27-3.23-0.82-4.38-1.65c-1.16-0.82-1.74-2.06-1.74-3.71c0-2.78,1.02-4.87,3.06-6.26c2.04-1.39,5.1-2.09,9.18-2.09
		c2.82,0,5.71,0.49,8.68,1.47c2.96,0.98,5.97,2.45,9.03,4.41l7.24-8.76c-2.43-1.76-4.96-3.23-7.59-4.38
		c-2.63-1.16-5.38-2.03-8.26-2.62s-5.91-0.88-9.09-0.88c-5.26,0-9.63,0.72-13.12,2.15c-3.49,1.43-6.12,3.58-7.88,6.44
		c-1.76,2.86-2.65,6.45-2.65,10.76c0,4.31,0.91,7.63,2.74,9.94c1.82,2.31,4.11,3.89,6.85,4.74c2.74,0.84,6.1,1.42,10.06,1.74
		c0.16,0,0.31,0.01,0.47,0.03c0.16,0.02,0.31,0.03,0.47,0.03c0.31,0.04,0.65,0.07,1,0.09c0.35,0.02,0.69,0.03,1,0.03
		c3.49,0.28,6.2,0.58,8.12,0.91c1.92,0.33,3.53,0.99,4.82,1.97c1.29,0.98,1.94,2.45,1.94,4.41c0,2.94-1.19,5.15-3.56,6.62
		c-2.37,1.47-5.93,2.21-10.68,2.21c-3.18,0-6.39-0.63-9.65-1.88c-3.26-1.25-6.53-3.14-9.82-5.65l-7.12,8.76
		c2.31,2.12,4.84,3.88,7.59,5.29c2.74,1.41,5.7,2.47,8.85,3.18s6.54,1.06,10.15,1.06c5.73,0,10.48-0.73,14.26-2.18
		c3.79-1.45,6.62-3.62,8.5-6.5c1.88-2.88,2.82-6.52,2.82-10.91C479.56,519.79,478.54,516.1,476.5,513.55z"/>
	<path class="st2" d="M505.23,541.08c-3.94-2.08-6.95-5.1-9.03-9.06c-2.08-3.96-3.12-8.74-3.12-14.35v-10.06
		c0-5.53,1.04-10.25,3.12-14.18c2.08-3.92,5.09-6.91,9.03-8.97c3.94-2.06,8.7-3.09,14.26-3.09c3.18,0,6.17,0.38,8.97,1.15
		c2.8,0.76,5.32,1.87,7.56,3.32c2.24,1.45,4.1,3.22,5.59,5.29l-8.65,7.76c-1.73-1.96-3.74-3.47-6.06-4.53
		c-2.31-1.06-4.73-1.59-7.24-1.59c-4.63,0-8.21,1.29-10.76,3.88c-2.55,2.59-3.82,6.24-3.82,10.94v10.06c0,4.82,1.26,8.55,3.79,11.18
		c2.53,2.63,6.13,3.94,10.79,3.94c2.55,0,4.98-0.57,7.29-1.71c2.31-1.14,4.31-2.74,6-4.82l8.65,8.35c-1.53,2.04-3.41,3.78-5.65,5.21
		c-2.24,1.43-4.76,2.52-7.56,3.26c-2.8,0.74-5.77,1.12-8.91,1.12C513.93,544.2,509.17,543.16,505.23,541.08z"/>
	<path class="st2" d="M564.67,541.08c-3.76-2.08-6.64-5.11-8.62-9.09c-1.98-3.98-2.97-8.77-2.97-14.38v-9.94
		c0-5.53,0.99-10.26,2.97-14.21c1.98-3.94,4.85-6.94,8.62-9c3.76-2.06,8.29-3.09,13.59-3.09s9.82,1.03,13.59,3.09
		c3.76,2.06,6.64,5.06,8.62,9c1.98,3.94,2.97,8.68,2.97,14.21v10.12c0,5.57-0.99,10.32-2.97,14.26c-1.98,3.94-4.85,6.95-8.62,9.03
		c-3.76,2.08-8.29,3.12-13.59,3.12S568.44,543.16,564.67,541.08z M588,528.85c2.29-2.63,3.44-6.31,3.44-11.06v-10.12
		c0-4.74-1.15-8.41-3.44-11c-2.29-2.59-5.54-3.88-9.74-3.88c-4.2,0-7.44,1.29-9.74,3.88s-3.44,6.26-3.44,11v10.12
		c0,4.75,1.15,8.43,3.44,11.06c2.29,2.63,5.54,3.94,9.74,3.94C582.46,532.79,585.7,531.47,588,528.85z"/>
	<path class="st2" d="M620.5,457.79h12v12h-12V457.79z M620.5,482.26h12v61.06h-12V482.26z"/>
	<path class="st2" d="M650.73,482.26h12v61.06h-12V482.26z M687.79,506.32c0-4.31-1.12-7.65-3.35-10c-2.24-2.35-5.37-3.53-9.41-3.53
		c-3.92,0-6.95,1.04-9.09,3.12c-2.14,2.08-3.21,5-3.21,8.76l-1.24-11.76c1.88-3.69,4.34-6.53,7.38-8.53c3.04-2,6.4-3,10.09-3
		c6.63,0,11.76,2.17,15.38,6.5c3.63,4.33,5.44,10.46,5.44,18.38v37.06h-12V506.32z"/>
</g>
</svg>
