<?xml version="1.0" encoding="utf-8"?>
<!-- Generator: Adobe Illustrator 26.0.2, SVG Export Plug-In . SVG Version: 6.00 Build 0)  -->
<svg version="1.1" id="Calque_1" xmlns="http://www.w3.org/2000/svg" xmlns:xlink="http://www.w3.org/1999/xlink" x="0px" y="0px"
	 viewBox="0 0 701 768" style="enable-background:new 0 0 701 768;" xml:space="preserve">
<style type="text/css">
	.st0{fill:#7AC943;}
	.st1{fill:#FCFCFC;}
	.st2{fill:none;}
	.st3{font-family:'MyriadPro-Regular';}
	.st4{font-size:130px;}
</style>
<g>
	<g>
		<path class="st0" d="M218.31,554.16h263.94c0.67-8.28,1.03-16.69,1.03-25.2c0-54.26-14.05-104.3-37.71-144.42l118.47,17.58
			l-121.61-99.35l145.65-65.51l-157.2-16.5l88.83-133.41l-142.88,71.59L380.64,0l-83.19,136.94L215.02,2.93l2.9,158.82L75.44,95.21
			l88.08,130.28L6.21,247.55l145.29,60.37L29.31,411.58l117.26-21.53c-21.75,39.15-34.55,87.1-34.55,138.91
			c0,132.02,83.11,239.04,185.64,239.04c92.68,0,169.49-87.47,183.38-201.79H218.31V554.16z"/>
		<path class="st0" d="M482.26,554.16c-0.33,4.05-0.74,8.06-1.22,12.05h210.13v-12.05H482.26z"/>
	</g>
	<path class="st1" d="M207.17,487.88c-3.63-4.33-8.76-6.5-15.38-6.5c-3.69,0-7.05,1-10.09,3c-2.42,1.59-4.46,3.75-6.15,6.41v-8.53
		h-12v61.06h12v-38.65c0-3.76,1.07-6.69,3.21-8.76c2.14-2.08,5.17-3.12,9.09-3.12c4.04,0,7.18,1.18,9.41,3.53
		c2.24,2.35,3.35,5.69,3.35,10v37h12v-37.06C212.62,498.34,210.8,492.21,207.17,487.88z"/>
	<path class="st1" d="M273.91,491.82c-1.88-3.39-4.63-5.98-8.24-7.76c-3.61-1.78-7.94-2.68-13-2.68c-4.63,0-8.83,0.77-12.62,2.32
		c-3.79,1.55-6.83,3.72-9.15,6.5l8.76,6c1.8-1.33,3.87-2.37,6.21-3.12c2.33-0.74,4.71-1.12,7.15-1.12c3.92,0,6.95,1.11,9.09,3.32
		c2.14,2.22,3.21,5.32,3.21,9.32v2.59H248.5c-6.9,0-12.06,1.51-15.47,4.53c-3.41,3.02-5.12,7.55-5.12,13.59
		c0,6.35,1.86,11.09,5.59,14.21c3.73,3.12,9.35,4.68,16.88,4.68c2.55,0,4.84-0.26,6.88-0.79c2.04-0.53,3.83-1.32,5.38-2.38
		c1.01-0.69,1.88-1.55,2.68-2.49v4.78h11.41v-39.24C276.73,499.3,275.79,495.21,273.91,491.82z M265.32,528.38
		c0,2.08-1.13,3.61-3.38,4.59c-2.26,0.98-5.68,1.47-10.26,1.47c-4.2,0-7.32-0.74-9.38-2.24c-2.06-1.49-3.09-3.78-3.09-6.88
		c0-2.86,0.77-4.99,2.32-6.38c1.55-1.39,3.89-2.09,7.03-2.09h16.76V528.38z"/>
	<path class="st1" d="M338.59,487.88c-3.63-4.33-8.76-6.5-15.38-6.5c-3.69,0-7.05,1-10.09,3c-2.42,1.59-4.46,3.75-6.15,6.41v-8.53
		h-12v61.06h12v-38.65c0-3.76,1.07-6.69,3.21-8.76c2.14-2.08,5.17-3.12,9.09-3.12c4.04,0,7.18,1.18,9.41,3.53
		c2.24,2.35,3.35,5.69,3.35,10v37h12v-37.06C344.03,498.34,342.21,492.21,338.59,487.88z"/>
	<path class="st1" d="M405.32,491.82c-1.88-3.39-4.63-5.98-8.24-7.76c-3.61-1.78-7.94-2.68-13-2.68c-4.63,0-8.83,0.77-12.62,2.32
		c-3.79,1.55-6.83,3.72-9.15,6.5l8.76,6c1.8-1.33,3.87-2.37,6.21-3.12c2.33-0.74,4.71-1.12,7.15-1.12c3.92,0,6.95,1.11,9.09,3.32
		c2.14,2.22,3.21,5.32,3.21,9.32v2.59h-16.82c-6.9,0-12.06,1.51-15.47,4.53c-3.41,3.02-5.12,7.55-5.12,13.59
		c0,6.35,1.86,11.09,5.59,14.21c3.73,3.12,9.35,4.68,16.88,4.68c2.55,0,4.84-0.26,6.88-0.79c2.04-0.53,3.83-1.32,5.38-2.38
		c1.01-0.69,1.88-1.55,2.68-2.49v4.78h11.41v-39.24C408.14,499.3,407.2,495.21,405.32,491.82z M396.73,528.38
		c0,2.08-1.13,3.61-3.38,4.59c-2.26,0.98-5.68,1.47-10.26,1.47c-4.2,0-7.32-0.74-9.38-2.24c-2.06-1.49-3.09-3.78-3.09-6.88
		c0-2.86,0.77-4.99,2.32-6.38c1.55-1.39,3.89-2.09,7.03-2.09h16.76V528.38z"/>
	<path class="st1" d="M470.5,513.55c-2.04-2.55-4.56-4.25-7.56-5.12c-3-0.86-6.64-1.43-10.91-1.71c-0.12-0.04-0.24-0.06-0.35-0.06
		s-0.24,0-0.35,0c-0.27-0.04-0.54-0.06-0.79-0.06c-0.26,0-0.5-0.02-0.74-0.06c-3.26-0.2-5.76-0.43-7.53-0.71
		c-1.76-0.27-3.23-0.82-4.38-1.65c-1.16-0.82-1.74-2.06-1.74-3.71c0-2.78,1.02-4.87,3.06-6.26c2.04-1.39,5.1-2.09,9.18-2.09
		c2.82,0,5.71,0.49,8.68,1.47c2.96,0.98,5.97,2.45,9.03,4.41l7.24-8.76c-2.43-1.76-4.96-3.23-7.59-4.38
		c-2.63-1.16-5.38-2.03-8.26-2.62s-5.91-0.88-9.09-0.88c-5.26,0-9.63,0.72-13.12,2.15c-3.49,1.43-6.12,3.58-7.88,6.44
		c-1.76,2.86-2.65,6.45-2.65,10.76c0,4.31,0.91,7.63,2.74,9.94c1.82,2.31,4.11,3.89,6.85,4.74c2.74,0.84,6.1,1.42,10.06,1.74
		c0.16,0,0.31,0.01,0.47,0.03c0.16,0.02,0.31,0.03,0.47,0.03c0.31,0.04,0.65,0.07,1,0.09c0.35,0.02,0.69,0.03,1,0.03
		c3.49,0.28,6.2,0.58,8.12,0.91c1.92,0.33,3.53,0.99,4.82,1.97c1.29,0.98,1.94,2.45,1.94,4.41c0,2.94-1.19,5.15-3.56,6.62
		c-2.37,1.47-5.93,2.21-10.68,2.21c-3.18,0-6.39-0.63-9.65-1.88c-3.26-1.25-6.53-3.14-9.82-5.65l-7.12,8.76
		c2.31,2.12,4.84,3.88,7.59,5.29c2.74,1.41,5.7,2.47,8.85,3.18s6.54,1.06,10.15,1.06c5.73,0,10.48-0.73,14.26-2.18
		c3.79-1.45,6.62-3.62,8.5-6.5c1.88-2.88,2.82-6.52,2.82-10.91C473.56,519.79,472.54,516.1,470.5,513.55z"/>
	<rect x="497.02" y="452" class="st2" width="203.62" height="92.5"/>
	<text transform="matrix(1 0 0 1 497.0195 544.2988)" class="st0 st3 st4">nft</text>
</g>
</svg>
